<svg xmlns="http://www.w3.org/2000/svg" xmlns:xlink="http://www.w3.org/1999/xlink" width="52.994" height="53.001" viewBox="0 0 52.994 53.001">
  <defs>
    <clipPath id="clip-path">
      <path id="Path_15" data-name="Path 15" d="M437.032,15.574A19.41,19.41,0,0,0,435.8,9.142a12.978,12.978,0,0,0-3.056-4.694,12.989,12.989,0,0,0-4.693-3.057A19.441,19.441,0,0,0,421.619.16C418.792.031,417.891,0,410.695,0s-8.1.031-10.925.16a19.434,19.434,0,0,0-6.431,1.231,12.989,12.989,0,0,0-4.693,3.057,12.982,12.982,0,0,0-3.057,4.694,19.44,19.44,0,0,0-1.231,6.432c-.129,2.827-.16,3.73-.16,10.927s.031,8.1.16,10.926a19.448,19.448,0,0,0,1.231,6.433,13.553,13.553,0,0,0,7.75,7.75,19.459,19.459,0,0,0,6.431,1.232c2.826.128,3.729.159,10.925.159s8.1-.031,10.924-.159a19.466,19.466,0,0,0,6.432-1.232,13.547,13.547,0,0,0,7.749-7.75,19.417,19.417,0,0,0,1.232-6.433c.129-2.827.159-3.729.159-10.926S437.161,18.4,437.032,15.574Zm-2.2,21.752a17.513,17.513,0,0,1-1.084,5.734,11.345,11.345,0,0,1-6.492,6.491,17.473,17.473,0,0,1-5.733,1.084c-2.789.128-3.717.158-10.824.158s-8.036-.03-10.825-.158a17.5,17.5,0,0,1-5.732-1.083,11.343,11.343,0,0,1-6.492-6.492,17.481,17.481,0,0,1-1.084-5.734c-.127-2.786-.157-3.714-.157-10.825s.03-8.039.157-10.826a17.48,17.48,0,0,1,1.084-5.733,10.728,10.728,0,0,1,2.559-3.932,10.738,10.738,0,0,1,3.932-2.561,17.466,17.466,0,0,1,5.732-1.084c2.787-.127,3.715-.157,10.825-.157s8.038.03,10.824.157a17.473,17.473,0,0,1,5.733,1.084,10.724,10.724,0,0,1,3.931,2.561,10.726,10.726,0,0,1,2.56,3.932,17.507,17.507,0,0,1,1.084,5.734c.127,2.781.157,3.709.157,10.825S434.954,34.544,434.827,37.326ZM411.8,14.355h-2.208V25.4H398.55v2.208h11.04V38.647H411.8V27.605h11.04V25.4H411.8Z" fill="none" clip-rule="evenodd"/>
    </clipPath>
  </defs>
  <g id="Group_22" data-name="Group 22" transform="translate(-384.197)">
    <g id="Group_23" data-name="Group 23" clip-path="url(#clip-path)">
      <rect id="Rectangle_8" data-name="Rectangle 8" width="64.034" height="64.043" transform="translate(378.677 -5.521)" fill="#262626"/>
    </g>
  </g>
</svg>
